{
  "accessors": [
    {
      "bufferView": 1,
      "componentType": 5126,
      "count": 512,
      "max": [
        1.4394299983978271,
        1.4394299983978271,
        5.368070125579834
      ],
      "min": [
        -1.4394299983978271,
        -1.4394299983978271,
        -4.7646298408508301
      ],
      "type": "VEC3"
    },
    {
      "bufferView": 1,
      "byteOffset": 6144,
      "componentType": 5126,
      "count": 512,
      "max": [
        0.99895429611206055,
        0.99895429611206055,
        0.75358974933624268
      ],
      "min": [
        -0.99895429611206055,
        -0.99895429611206055,
        -0.99740093946456909
      ],
      "type": "VEC3"
    },
    {
      "bufferView": 0,
      "componentType": 5125,
      "count": 3060,
      "max": [
        511
      ],
      "min": [
        0
      ],
      "type": "SCALAR"
    },
    {
      "bufferView": 1,
      "byteOffset": 12288,
      "componentType": 5126,
      "count": 180,
      "max": [
        1.1145700216293335,
        1.1142400503158569,
        1
      ],
      "min": [
        -1.1087700128555298,
        -1.1090999841690063,
        -1.4241299629211426
      ],
      "type": "VEC3"
    },
    {
      "bufferView": 1,
      "byteOffset": 14448,
      "componentType": 5126,
      "count": 180,
      "max": [
        0.99921524524688721,
        0.99920773506164551,
        0.84624260663986206
      ],
      "min": [
        -0.99986058473587036,
        -0.99942761659622192,
        -0.9987373948097229
      ],
      "type": "VEC3"
    },
    {
      "bufferView": 0,
      "byteOffset": 12240,
      "componentType": 5125,
      "count": 1002,
      "max": [
        179
      ],
      "min": [
        0
      ],
      "type": "SCALAR"
    },
    {
      "bufferView": 1,
      "byteOffset": 16608,
      "componentType": 5126,
      "count": 199,
      "max": [
        28.640209197998047,
        33.405250549316406,
        1.0165899991989136
      ],
      "min": [
        -18.880409240722656,
        -10.409700393676758,
        -1.7093100547790527
      ],
      "type": "VEC3"
    },
    {
      "bufferView": 1,
      "byteOffset": 18996,
      "componentType": 5126,
      "count": 199,
      "max": [
        0.99119973182678223,
        0.89598184823989868,
        0.99980014562606812
      ],
      "min": [
        -0.85549956560134888,
        -0.96538013219833374,
        -0.99984300136566162
      ],
      "type": "VEC3"
    },
    {
      "bufferView": 0,
      "byteOffset": 16248,
      "componentType": 5125,
      "count": 891,
      "max": [
        198
      ],
      "min": [
        0
      ],
      "type": "SCALAR"
    },
    {
      "bufferView": 1,
      "byteOffset": 21384,
      "componentType": 5126,
      "count": 512,
      "max": [
        1.4394299983978271,
        1.4394299983978271,
        5.368070125579834
      ],
      "min": [
        -1.4394299983978271,
        -1.4394299983978271,
        -4.7646298408508301
      ],
      "type": "VEC3"
    },
    {
      "bufferView": 1,
      "byteOffset": 27528,
      "componentType": 5126,
      "count": 512,
      "max": [
        0.99895429611206055,
        0.99895429611206055,
        0.75358974933624268
      ],
      "min": [
        -0.99895429611206055,
        -0.99895429611206055,
        -0.99962013959884644
      ],
      "type": "VEC3"
    },
    {
      "bufferView": 0,
      "byteOffset": 19812,
      "componentType": 5125,
      "count": 3060,
      "max": [
        511
      ],
      "min": [
        0
      ],
      "type": "SCALAR"
    },
    {
      "bufferView": 1,
      "byteOffset": 33672,
      "componentType": 5126,
      "count": 152,
      "max": [
        1,
        1,
        0.856719970703125
      ],
      "min": [
        -1.6066900491714478,
        -1.1526000499725342,
        -0.88857001066207886
      ],
      "type": "VEC3"
    },
    {
      "bufferView": 1,
      "byteOffset": 35496,
      "componentType": 5126,
      "count": 152,
      "max": [
        0.95231258869171143,
        0.95231258869171143,
        0.88037145137786865
      ],
      "min": [
        -0.9824063777923584,
        -0.97595006227493286,
        -0.88756275177001953
      ],
      "type": "VEC3"
    },
    {
      "bufferView": 0,
      "byteOffset": 32052,
      "componentType": 5125,
      "count": 891,
      "max": [
        151
      ],
      "min": [
        0
      ],
      "type": "SCALAR"
    },
    {
      "bufferView": 1,
      "byteOffset": 37320,
      "componentType": 5126,
      "count": 160,
      "max": [
        1.9145100116729736,
        1.9145100116729736,
        0.97447001934051514
      ],
      "min": [
        -1.9145100116729736,
        -1.9145100116729736,
        -1.2287900447845459
      ],
      "type": "VEC3"
    },
    {
      "bufferView": 1,
      "byteOffset": 39240,
      "componentType": 5126,
      "count": 160,
      "max": [
        0.93571215867996216,
        0.93571215867996216,
        0.99595808982849121
      ],
      "min": [
        -0.93571215867996216,
        -0.93571215867996216,
        0.35276457667350769
      ],
      "type": "VEC3"
    },
    {
      "bufferView": 0,
      "byteOffset": 35616,
      "componentType": 5125,
      "count": 840,
      "max": [
        159
      ],
      "min": [
        0
      ],
      "type": "SCALAR"
    },
    {
      "bufferView": 1,
      "byteOffset": 41160,
      "componentType": 5126,
      "count": 1728,
      "max": [
        1.5688799619674683,
        0.87532997131347656,
        0.069550000131130219
      ],
      "min": [
        0.80598998069763184,
        -0.87532997131347656,
        -0.28567001223564148
      ],
      "type": "VEC3"
    },
    {
      "bufferView": 1,
      "byteOffset": 61896,
      "componentType": 5126,
      "count": 1728,
      "max": [
        0.99997752904891968,
        0.99749666452407837,
        0.99996918439865112
      ],
      "min": [
        -0.99997752904891968,
        -0.99749666452407837,
        -0.99996989965438843
      ],
      "type": "VEC3"
    },
    {
      "bufferView": 0,
      "byteOffset": 38976,
      "componentType": 5125,
      "count": 10272,
      "max": [
        1727
      ],
      "min": [
        0
      ],
      "type": "SCALAR"
    },
    {
      "bufferView": 1,
      "byteOffset": 82632,
      "componentType": 5126,
      "count": 90,
      "max": [
        25.001920700073242,
        50.149589538574219,
        1.0731300115585327
      ],
      "min": [
        -30.193220138549805,
        -1.1191699504852295,
        -1.0882899761199951
      ],
      "type": "VEC3"
    },
    {
      "bufferView": 1,
      "byteOffset": 83712,
      "componentType": 5126,
      "count": 90,
      "max": [
        0.99954938888549805,
        0.82358157634735107,
        0.99957597255706787
      ],
      "min": [
        -0.99954938888549805,
        -0.81286036968231201,
        -0.9996066689491272
      ],
      "type": "VEC3"
    },
    {
      "bufferView": 0,
      "byteOffset": 80064,
      "componentType": 5125,
      "count": 270,
      "max": [
        89
      ],
      "min": [
        0
      ],
      "type": "SCALAR"
    }
  ],
  "asset": {
    "extras": {
      "author": "watercat (https://sketchfab.com/watercat)",
      "license": "CC-BY-4.0 (http://creativecommons.org/licenses/by/4.0/)",
      "source": "https://sketchfab.com/models/5aa36839db144377a2ec4e2dec4afb98",
      "title": "Dorifiki Kera"
    },
    "generator": "Sketchfab-3.42.2",
    "version": "2.0"
  },
  "bufferViews": [
    {
      "buffer": 0,
      "byteLength": 81144,
      "byteOffset": 0,
      "name": "floatBufferViews",
      "target": 34963
    },
    {
      "buffer": 0,
      "byteLength": 84792,
      "byteOffset": 81144,
      "byteStride": 12,
      "name": "floatBufferViews",
      "target": 34962
    }
  ],
  "buffers": [
    {
      "byteLength": 165936,
      "uri": "scene.bin"
    }
  ],
  "materials": [
    {
      "doubleSided": true,
      "emissiveFactor": [
        0,
        0,
        0
      ],
      "name": "Root",
      "pbrMetallicRoughness": {
        "baseColorFactor": [
          1,
          1,
          1,
          1
        ],
        "metallicFactor": 0,
        "roughnessFactor": 0.59999999999999998
      }
    }
  ],
  "meshes": [
    {
      "name": "Cylinder_0",
      "primitives": [
        {
          "attributes": {
            "NORMAL": 1,
            "POSITION": 0
          },
          "indices": 2,
          "material": 0,
          "mode": 4
        }
      ]
    },
    {
      "name": "Cylinder.001_0",
      "primitives": [
        {
          "attributes": {
            "NORMAL": 4,
            "POSITION": 3
          },
          "indices": 5,
          "material": 0,
          "mode": 4
        }
      ]
    },
    {
      "name": "Cylinder.003_0",
      "primitives": [
        {
          "attributes": {
            "NORMAL": 7,
            "POSITION": 6
          },
          "indices": 8,
          "material": 0,
          "mode": 4
        }
      ]
    },
    {
      "name": "Cylinder.002_0",
      "primitives": [
        {
          "attributes": {
            "NORMAL": 10,
            "POSITION": 9
          },
          "indices": 11,
          "material": 0,
          "mode": 4
        }
      ]
    },
    {
      "name": "Cylinder.004_0",
      "primitives": [
        {
          "attributes": {
            "NORMAL": 13,
            "POSITION": 12
          },
          "indices": 14,
          "material": 0,
          "mode": 4
        }
      ]
    },
    {
      "name": "Cylinder.005_0",
      "primitives": [
        {
          "attributes": {
            "NORMAL": 16,
            "POSITION": 15
          },
          "indices": 17,
          "material": 0,
          "mode": 4
        }
      ]
    },
    {
      "name": "NurbsPath_0",
      "primitives": [
        {
          "attributes": {
            "NORMAL": 19,
            "POSITION": 18
          },
          "indices": 20,
          "material": 0,
          "mode": 4
        }
      ]
    },
    {
      "name": "Cylinder.008_0",
      "primitives": [
        {
          "attributes": {
            "NORMAL": 22,
            "POSITION": 21
          },
          "indices": 23,
          "material": 0,
          "mode": 4
        }
      ]
    }
  ],
  "nodes": [
    {
      "children": [
        1
      ],
      "name": "RootNode (gltf orientation matrix)",
      "rotation": [
        -0.70710678118654746,
        -0,
        -0,
        0.70710678118654757
      ]
    },
    {
      "children": [
        2
      ],
      "name": "RootNode (model correction matrix)"
    },
    {
      "children": [
        3,
        5,
        7,
        9,
        11,
        13,
        15,
        17,
        19
      ],
      "name": "Root"
    },
    {
      "children": [
        4
      ],
      "matrix": [
        -0.29086000000000006,
        0.95517000000000007,
        -0.05519000000000001,
        0,
        -0.77110000000000001,
        -0.19988000000000003,
        0.60452000000000006,
        0,
        0.56639000000000006,
        0.21839000000000003,
        0.7946700000000001,
        0,
        1.8375899999999998,
        5.63978,
        5.8049299999999988,
        1
      ],
      "name": "Lamp"
    },
    {
      "name": "Lamp"
    },
    {
      "children": [
        6
      ],
      "matrix": [
        1.62344,
        0,
        0,
        0,
        0,
        -0.69445000000000012,
        -1.4674099999999999,
        0,
        -0,
        0.099440000000000028,
        -0.047060000000000005,
        0,
        -0.24563000000000001,
        0.16587000000000002,
        4.1172999999999993,
        1
      ],
      "name": "Cylinder"
    },
    {
      "mesh": 0,
      "name": "Cylinder_0"
    },
    {
      "children": [
        8
      ],
      "matrix": [
        0.12479000000000003,
        0,
        0,
        0,
        0,
        -0.053010000000000015,
        -0.11297000000000001,
        0,
        -0,
        0.37440000000000007,
        -0.17569000000000001,
        0,
        -0.25118000000000001,
        0.17886000000000002,
        4.1157799999999991,
        1
      ],
      "name": "Cylinder.001"
    },
    {
      "mesh": 1,
      "name": "Cylinder.001_0"
    },
    {
      "children": [
        10
      ],
      "matrix": [
        -0.035810000000000008,
        -0.015210000000000003,
        -0.032420000000000004,
        0,
        -0.025320000000000006,
        0.043170000000000014,
        0.0077100000000000016,
        0,
        0.43824000000000002,
        0.37489000000000006,
        -0.66002000000000016,
        0,
        0.33595000000000008,
        -0.47989000000000004,
        3.8651399999999998,
        1
      ],
      "name": "Cylinder.003"
    },
    {
      "mesh": 2,
      "name": "Cylinder.003_0"
    },
    {
      "children": [
        12
      ],
      "matrix": [
        0.16139000000000003,
        0,
        0,
        0,
        0,
        -0.069040000000000018,
        -0.14588000000000001,
        0,
        -0,
        0.0053800000000000011,
        -0.0025500000000000006,
        0,
        -0.24563000000000001,
        -1.10955,
        4.6783299999999999,
        1
      ],
      "name": "Cylinder.002"
    },
    {
      "mesh": 3,
      "name": "Cylinder.002_0"
    },
    {
      "children": [
        14
      ],
      "matrix": [
        0,
        0,
        -0.24261000000000002,
        0,
        -0,
        0.24261000000000002,
        -0,
        0,
        0.78532000000000002,
        0,
        0,
        0,
        -0.24747000000000002,
        0.91709000000000007,
        3.6089500000000001,
        1
      ],
      "name": "Cylinder.004"
    },
    {
      "mesh": 4,
      "name": "Cylinder.004_0"
    },
    {
      "children": [
        16
      ],
      "matrix": [
        0.16946000000000006,
        0,
        0,
        0,
        0,
        0.16946000000000006,
        0,
        0,
        0,
        0,
        1.4951599999999998,
        0,
        -0.29840000000000005,
        1.4810399999999999,
        1.9465199999999998,
        1
      ],
      "name": "Cylinder.005"
    },
    {
      "mesh": 5,
      "name": "Cylinder.005_0"
    },
    {
      "children": [
        18
      ],
      "matrix": [
        0,
        -0.99982000000000004,
        0.018860000000000002,
        0,
        1,
        0,
        -0,
        0,
        0,
        0.018860000000000002,
        0.99982000000000004,
        0,
        -0.26064999999999999,
        2.3874399999999998,
        3.5815800000000002,
        1
      ],
      "name": "NurbsPath"
    },
    {
      "mesh": 6,
      "name": "NurbsPath_0"
    },
    {
      "children": [
        20
      ],
      "matrix": [
        0.03357000000000001,
        0.03357000000000001,
        -0,
        0,
        -0.030420000000000006,
        0.030420000000000006,
        -0.020060000000000005,
        0,
        -0.49557000000000007,
        0.49557000000000007,
        1.5029599999999999,
        0,
        0.20787,
        0.88965000000000016,
        1.7063700000000002,
        1
      ],
      "name": "Cylinder.008"
    },
    {
      "mesh": 7,
      "name": "Cylinder.008_0"
    }
  ],
  "scene": 0,
  "scenes": [
    {
      "name": "OSG_Scene",
      "nodes": [
        0
      ]
    }
  ]
}

