{
  "accessors": [
    {
      "bufferView": 2,
      "componentType": 5126,
      "count": 4455,
      "max": [
        0.95001322031021118,
        0.95000004768371582,
        0.12495981156826019
      ],
      "min": [
        -0.9500001072883606,
        -0.95000004768371582,
        -0.11716406047344208
      ],
      "type": "VEC3"
    },
    {
      "bufferView": 2,
      "byteOffset": 53460,
      "componentType": 5126,
      "count": 4455,
      "max": [
        0.89653700590133667,
        0.94602715969085693,
        1
      ],
      "min": [
        -0.9959837794303894,
        -0.86468106508255005,
        -0.14639832079410553
      ],
      "type": "VEC3"
    },
    {
      "bufferView": 3,
      "componentType": 5126,
      "count": 4455,
      "max": [
        0.98759090900421143,
        0.14777854084968567,
        0.97115898132324219,
        1
      ],
      "min": [
        -0.65418529510498047,
        -1,
        -0.88707458972930908,
        -1
      ],
      "type": "VEC4"
    },
    {
      "bufferView": 1,
      "componentType": 5126,
      "count": 4455,
      "max": [
        0.97500002384185791,
        0.9750065803527832
      ],
      "min": [
        0.025000005960464478,
        0.025000005960464478
      ],
      "type": "VEC2"
    },
    {
      "bufferView": 0,
      "componentType": 5125,
      "count": 25161,
      "max": [
        4454
      ],
      "min": [
        0
      ],
      "type": "SCALAR"
    },
    {
      "bufferView": 2,
      "byteOffset": 106920,
      "componentType": 5126,
      "count": 1310,
      "max": [
        0.95001322031021118,
        0.95000004768371582,
        0.12219326198101044
      ],
      "min": [
        -0.95000016689300537,
        -0.95000004768371582,
        -0.15137240290641785
      ],
      "type": "VEC3"
    },
    {
      "bufferView": 2,
      "byteOffset": 122640,
      "componentType": 5126,
      "count": 1310,
      "max": [
        1,
        1,
        2.2641209795892792e-07
      ],
      "min": [
        -1,
        -1,
        -1
      ],
      "type": "VEC3"
    },
    {
      "bufferView": 3,
      "byteOffset": 71280,
      "componentType": 5126,
      "count": 1310,
      "max": [
        1,
        1,
        0.00022845396597404033,
        1
      ],
      "min": [
        -1,
        -1,
        -0.0020239390432834625,
        1
      ],
      "type": "VEC4"
    },
    {
      "bufferView": 1,
      "byteOffset": 35640,
      "componentType": 5126,
      "count": 1310,
      "max": [
        0.97500336170196533,
        0.97500008344650269
      ],
      "min": [
        0.024996638298034668,
        0.024999916553497314
      ],
      "type": "VEC2"
    },
    {
      "bufferView": 0,
      "byteOffset": 100644,
      "componentType": 5125,
      "count": 3132,
      "max": [
        1309
      ],
      "min": [
        0
      ],
      "type": "SCALAR"
    }
  ],
  "asset": {
    "extras": {
      "author": "SebastianSosnowski (https://sketchfab.com/SebastianSosnowski)",
      "license": "CC-BY-4.0 (http://creativecommons.org/licenses/by/4.0/)",
      "source": "https://sketchfab.com/models/6177ea47cee14230a875245322bd3817",
      "title": "Mars - Sinai Planum North"
    },
    "generator": "Sketchfab-3.49.4",
    "version": "2.0"
  },
  "bufferViews": [
    {
      "buffer": 0,
      "byteLength": 113172,
      "byteOffset": 0,
      "name": "floatBufferViews",
      "target": 34963
    },
    {
      "buffer": 0,
      "byteLength": 46120,
      "byteOffset": 113172,
      "byteStride": 8,
      "name": "floatBufferViews",
      "target": 34962
    },
    {
      "buffer": 0,
      "byteLength": 138360,
      "byteOffset": 159292,
      "byteStride": 12,
      "name": "floatBufferViews",
      "target": 34962
    },
    {
      "buffer": 0,
      "byteLength": 92240,
      "byteOffset": 297652,
      "byteStride": 16,
      "name": "floatBufferViews",
      "target": 34962
    }
  ],
  "buffers": [
    {
      "byteLength": 389892,
      "uri": "scene.bin"
    }
  ],
  "images": [
    {
      "uri": "textures/material_normal.png"
    },
    {
      "uri": "textures/material_baseColor.jpeg"
    },
    {
      "uri": "textures/material_metallicRoughness.png"
    }
  ],
  "materials": [
    {
      "doubleSided": true,
      "name": "material",
      "normalTexture": {
        "index": 0,
        "scale": 1,
        "texCoord": 0
      },
      "occlusionTexture": {
        "index": 2,
        "strength": 1,
        "texCoord": 0
      },
      "pbrMetallicRoughness": {
        "baseColorFactor": [
          1,
          1,
          1,
          1
        ],
        "baseColorTexture": {
          "index": 1,
          "texCoord": 0
        },
        "metallicFactor": 0,
        "metallicRoughnessTexture": {
          "index": 2,
          "texCoord": 0
        },
        "roughnessFactor": 0.80659298779999999
      }
    },
    {
      "doubleSided": true,
      "emissiveFactor": [
        0,
        0,
        0
      ],
      "name": "material_2",
      "pbrMetallicRoughness": {
        "baseColorFactor": [
          0,
          0,
          0,
          1
        ],
        "metallicFactor": 0,
        "roughnessFactor": 1
      }
    }
  ],
  "meshes": [
    {
      "name": "SinaiPlanum_ZB_LP_1_0",
      "primitives": [
        {
          "attributes": {
            "NORMAL": 1,
            "POSITION": 0,
            "TANGENT": 2,
            "TEXCOORD_0": 3
          },
          "indices": 4,
          "material": 0,
          "mode": 4
        }
      ]
    },
    {
      "name": "SinaiPlanum_ZB_LP_2_0",
      "primitives": [
        {
          "attributes": {
            "NORMAL": 6,
            "POSITION": 5,
            "TANGENT": 7,
            "TEXCOORD_0": 8
          },
          "indices": 9,
          "material": 1,
          "mode": 4
        }
      ]
    }
  ],
  "nodes": [
    {
      "children": [
        1
      ],
      "name": "RootNode (gltf orientation matrix)",
      "rotation": [
        -0.70710678118654746,
        -0,
        -0,
        0.70710678118654757
      ]
    },
    {
      "children": [
        2
      ],
      "name": "RootNode (model correction matrix)"
    },
    {
      "children": [
        3
      ],
      "matrix": [
        1,
        0,
        0,
        0,
        0,
        0,
        1,
        0,
        0,
        -1,
        0,
        0,
        0,
        0,
        0,
        1
      ],
      "name": "ed8cd04395214353bbaecff08ba554de.fbx"
    },
    {
      "children": [
        4
      ],
      "name": "RootNode"
    },
    {
      "children": [
        5,
        6
      ],
      "matrix": [
        1,
        0,
        0,
        0,
        0,
        2.2204460492503131e-16,
        -1,
        0,
        0,
        1,
        2.2204460492503131e-16,
        0,
        0,
        0,
        0,
        1
      ],
      "name": "SinaiPlanum_ZB_LP"
    },
    {
      "mesh": 0,
      "name": "SinaiPlanum_ZB_LP_1_0"
    },
    {
      "mesh": 1,
      "name": "SinaiPlanum_ZB_LP_2_0"
    }
  ],
  "samplers": [
    {
      "magFilter": 9729,
      "minFilter": 9987,
      "wrapS": 10497,
      "wrapT": 10497
    }
  ],
  "scene": 0,
  "scenes": [
    {
      "name": "OSG_Scene",
      "nodes": [
        0
      ]
    }
  ],
  "textures": [
    {
      "sampler": 0,
      "source": 0
    },
    {
      "sampler": 0,
      "source": 1
    },
    {
      "sampler": 0,
      "source": 2
    }
  ]
}

