{"asset":{"generator":"3D Builder","version":"2.0"},"scene":0,"scenes":[{"nodes":[0,1,2,3,4,5,6,7,8,9,10,11]}],"nodes":[{"mesh":0,"matrix":[1,0,0,0,0,-1.1920928955078125E-7,-0.99999988079071045,0,0,0.99999988079071045,-1.1920928955078125E-7,0,-1.2345794439315796,-0.61008840799331665,-0.62384921312332153,1]},{"mesh":1,"matrix":[1,0,0,0,0,-1.1920928955078125E-7,-0.99999988079071045,0,0,0.99999988079071045,-1.1920928955078125E-7,0,-1.2345794439315796,-0.61008840799331665,-0.62384921312332153,1]},{"mesh":2,"matrix":[1,0,0,0,0,-1.1920928955078125E-7,-0.99999988079071045,0,0,0.99999988079071045,-1.1920928955078125E-7,0,-1.2345794439315796,-0.61008840799331665,-0.62384921312332153,1]},{"mesh":3,"matrix":[1,0,0,0,0,-1.1920928955078125E-7,-0.99999988079071045,0,0,0.99999988079071045,-1.1920928955078125E-7,0,-1.2345794439315796,-0.61008840799331665,-0.62384921312332153,1]},{"mesh":4,"matrix":[1,0,0,0,0,-1.1920928955078125E-7,-0.99999988079071045,0,0,0.99999988079071045,-1.1920928955078125E-7,0,-1.2345794439315796,-0.61008840799331665,-0.62384921312332153,1]},{"mesh":5,"matrix":[1,0,0,0,0,-1.1920928955078125E-7,-0.99999988079071045,0,0,0.99999988079071045,-1.1920928955078125E-7,0,-1.2345794439315796,-0.61008840799331665,-0.62384921312332153,1]},{"mesh":6,"matrix":[1,0,0,0,0,-1.1920928955078125E-7,-0.99999988079071045,0,0,0.99999988079071045,-1.1920928955078125E-7,0,-1.2345794439315796,-0.61008840799331665,-0.62384921312332153,1]},{"mesh":7,"matrix":[1,0,0,0,0,-1.1920928955078125E-7,-0.99999988079071045,0,0,0.99999988079071045,-1.1920928955078125E-7,0,-1.2345794439315796,-0.61008840799331665,-0.62384921312332153,1]},{"mesh":8,"matrix":[1,0,0,0,0,-1.1920928955078125E-7,-0.99999988079071045,0,0,0.99999988079071045,-1.1920928955078125E-7,0,-1.2345794439315796,-0.61008840799331665,-0.62384921312332153,1]},{"mesh":9,"matrix":[1,0,0,0,0,-1.1920928955078125E-7,-0.99999988079071045,0,0,0.99999988079071045,-1.1920928955078125E-7,0,-1.2345794439315796,-0.61008840799331665,-0.62384921312332153,1]},{"mesh":10,"matrix":[1,0,0,0,0,-1.1920928955078125E-7,-0.99999988079071045,0,0,0.99999988079071045,-1.1920928955078125E-7,0,-1.2345794439315796,-0.61008840799331665,-0.62384921312332153,1]},{"mesh":11,"matrix":[1,0,0,0,0,-1.1920928955078125E-7,-0.99999988079071045,0,0,0.99999988079071045,-1.1920928955078125E-7,0,-1.2345794439315796,-0.61008840799331665,-0.62384921312332153,1]}],"meshes":[{"primitives":[{"attributes":{"POSITION":0},"mode":4,"indices":1,"material":0}]},{"primitives":[{"attributes":{"POSITION":2},"mode":4,"indices":3,"material":1}]},{"primitives":[{"attributes":{"POSITION":4},"mode":4,"indices":5,"material":1}]},{"primitives":[{"attributes":{"POSITION":6},"mode":4,"indices":7,"material":1}]},{"primitives":[{"attributes":{"POSITION":8},"mode":4,"indices":9,"material":0}]},{"primitives":[{"attributes":{"POSITION":10},"mode":4,"indices":11,"material":2}]},{"primitives":[{"attributes":{"POSITION":12},"mode":4,"indices":13,"material":3}]},{"primitives":[{"attributes":{"POSITION":14},"mode":4,"indices":15,"material":2}]},{"primitives":[{"attributes":{"POSITION":16},"mode":4,"indices":17,"material":4}]},{"primitives":[{"attributes":{"POSITION":18},"mode":4,"indices":19,"material":3}]},{"primitives":[{"attributes":{"POSITION":20},"mode":4,"indices":21,"material":1}]},{"primitives":[{"attributes":{"POSITION":22},"mode":4,"indices":23,"material":3}]}],"materials":[{"name":"Tan_Grey","pbrMetallicRoughness":{"baseColorFactor":[0.28079557418823242,0.27600860595703125,0.273224800825119,1],"metallicFactor":0.76986438035964966,"roughnessFactor":1}},{"name":"Grey_Dark","pbrMetallicRoughness":{"baseColorFactor":[0.1716163158416748,0.170197531580925,0.1695084422826767,1],"metallicFactor":0.84985411167144775,"roughnessFactor":1}},{"name":"Glow","pbrMetallicRoughness":{"baseColorFactor":[1,1,1,1],"metallicFactor":0,"roughnessFactor":1}},{"name":"Grey_Light","pbrMetallicRoughness":{"baseColorFactor":[0.51929724216461182,0.46538481116294861,0.43917182087898254,1],"metallicFactor":0.590532660484314,"roughnessFactor":1}},{"name":"Yellow","pbrMetallicRoughness":{"baseColorFactor":[0.86506867408752441,0.70400911569595337,0.11401299387216568,1],"metallicFactor":0.39014860987663269,"roughnessFactor":1}}],"accessors":[{"bufferView":0,"byteOffset":0,"count":224,"componentType":5126,"type":"VEC3","min":[2.2878293991088867,-1.8067178726196289,0.68295562267303467],"max":[3.3041296005249023,0.62405318021774292,1.4082353115081787]},{"bufferView":1,"byteOffset":0,"count":1224,"componentType":5125,"type":"SCALAR"},{"bufferView":2,"byteOffset":0,"count":576,"componentType":5126,"type":"VEC3","min":[2.3877692222595215,-1.5320056676864624,0.69589054584503174],"max":[3.105189323425293,-1.0763242244720459,1.2321643829345703]},{"bufferView":3,"byteOffset":0,"count":2640,"componentType":5125,"type":"SCALAR"},{"bufferView":4,"byteOffset":0,"count":48,"componentType":5126,"type":"VEC3","min":[0.15303942561149597,-1.7213766574859619,1.0122706890106201],"max":[1.420709490776062,-1.2336759567260742,1.8534077405929565]},{"bufferView":5,"byteOffset":0,"count":216,"componentType":5125,"type":"SCALAR"},{"bufferView":6,"byteOffset":0,"count":1040,"componentType":5126,"type":"VEC3","min":[-0.83497059345245361,-2.1889338493347168,0.61008840799331665],"max":[2.5287294387817383,0.93448120355606079,2.4967319965362549]},{"bufferView":7,"byteOffset":0,"count":4164,"componentType":5125,"type":"SCALAR"},{"bufferView":8,"byteOffset":0,"count":306,"componentType":5126,"type":"VEC3","min":[-0.67492055892944336,-2.1343212127685547,1.0844202041625977],"max":[2.1762394905090332,0.93448120355606079,2.3589720726013184]},{"bufferView":9,"byteOffset":0,"count":1104,"componentType":5125,"type":"SCALAR"},{"bufferView":10,"byteOffset":0,"count":160,"componentType":5126,"type":"VEC3","min":[0.066949427127838135,-2.15590500831604,1.168907642364502],"max":[2.4666495323181152,0.35848504304885864,2.3688640594482422]},{"bufferView":11,"byteOffset":0,"count":450,"componentType":5125,"type":"SCALAR"},{"bufferView":12,"byteOffset":0,"count":128,"componentType":5126,"type":"VEC3","min":[2.3877692222595215,-1.4813711643218994,0.69589054584503174],"max":[3.105189323425293,-1.126943826675415,1.2123686075210571]},{"bufferView":13,"byteOffset":0,"count":384,"componentType":5125,"type":"SCALAR"},{"bufferView":14,"byteOffset":0,"count":128,"componentType":5126,"type":"VEC3","min":[2.4831295013427734,-1.5251178741455078,0.77022755146026611],"max":[3.067939281463623,-1.0832120180130005,1.2289263010025024]},{"bufferView":15,"byteOffset":0,"count":336,"componentType":5125,"type":"SCALAR"},{"bufferView":16,"byteOffset":0,"count":84,"componentType":5126,"type":"VEC3","min":[0.17921942472457886,-1.7698588371276855,1.0266064405441284],"max":[1.4063794612884521,-1.1777863502502441,1.8272221088409424]},{"bufferView":17,"byteOffset":0,"count":432,"componentType":5125,"type":"SCALAR"},{"bufferView":18,"byteOffset":0,"count":252,"componentType":5126,"type":"VEC3","min":[1.8294194936752319,-1.8079760074615479,0.68117904663085938],"max":[2.17311954498291,-1.4952025413513184,0.98945832252502441]},{"bufferView":19,"byteOffset":0,"count":1224,"componentType":5125,"type":"SCALAR"},{"bufferView":20,"byteOffset":0,"count":84,"componentType":5126,"type":"VEC3","min":[1.8322794437408447,-1.8051407337188721,0.7021172046661377],"max":[2.1646595001220703,-1.497844934463501,0.96843409538269043]},{"bufferView":21,"byteOffset":0,"count":252,"componentType":5125,"type":"SCALAR"},{"bufferView":22,"byteOffset":0,"count":1417,"componentType":5126,"type":"VEC3","min":[-0.79308056831359863,-2.2100872993469238,1.0723981857299805],"max":[2.5490493774414062,0.96238869428634644,2.4558205604553223]},{"bufferView":23,"byteOffset":0,"count":7029,"componentType":5125,"type":"SCALAR"}],"bufferViews":[{"buffer":0,"byteOffset":0,"byteLength":2688,"byteStride":12,"target":34962},{"buffer":0,"byteOffset":2688,"byteLength":4896,"target":34963},{"buffer":0,"byteOffset":7584,"byteLength":6912,"byteStride":12,"target":34962},{"buffer":0,"byteOffset":14496,"byteLength":10560,"target":34963},{"buffer":0,"byteOffset":25056,"byteLength":576,"byteStride":12,"target":34962},{"buffer":0,"byteOffset":25632,"byteLength":864,"target":34963},{"buffer":0,"byteOffset":26496,"byteLength":12480,"byteStride":12,"target":34962},{"buffer":0,"byteOffset":38976,"byteLength":16656,"target":34963},{"buffer":0,"byteOffset":55632,"byteLength":3672,"byteStride":12,"target":34962},{"buffer":0,"byteOffset":59304,"byteLength":4416,"target":34963},{"buffer":0,"byteOffset":63720,"byteLength":1920,"byteStride":12,"target":34962},{"buffer":0,"byteOffset":65640,"byteLength":1800,"target":34963},{"buffer":0,"byteOffset":67440,"byteLength":1536,"byteStride":12,"target":34962},{"buffer":0,"byteOffset":68976,"byteLength":1536,"target":34963},{"buffer":0,"byteOffset":70512,"byteLength":1536,"byteStride":12,"target":34962},{"buffer":0,"byteOffset":72048,"byteLength":1344,"target":34963},{"buffer":0,"byteOffset":73392,"byteLength":1008,"byteStride":12,"target":34962},{"buffer":0,"byteOffset":74400,"byteLength":1728,"target":34963},{"buffer":0,"byteOffset":76128,"byteLength":3024,"byteStride":12,"target":34962},{"buffer":0,"byteOffset":79152,"byteLength":4896,"target":34963},{"buffer":0,"byteOffset":84048,"byteLength":1008,"byteStride":12,"target":34962},{"buffer":0,"byteOffset":85056,"byteLength":1008,"target":34963},{"buffer":0,"byteOffset":86064,"byteLength":17004,"byteStride":12,"target":34962},{"buffer":0,"byteOffset":103068,"byteLength":28116,"target":34963}],"buffers":[{"byteLength":131184,"uri":"scene.bin"}]}